<svg width="35" height="29" viewBox="0 0 35 29" fill="none" xmlns="http://www.w3.org/2000/svg">
<path d="M16.9093 28.7583L2.88267 15.6278C2.28579 15.1042 1.81682 14.5 1.39047 13.8556C-0.911778 10.2708 -0.314898 5.67917 2.88267 2.69861C4.71595 0.966667 7.18873 0 9.78942 0C13.8823 0 16.4404 2.25556 17.5062 3.54444C18.5721 2.25556 21.1301 0 25.223 0C27.8237 0 30.2965 0.966667 32.1298 2.69861C35.2847 5.67917 35.9242 10.2708 33.622 13.8556C33.1956 14.5 32.7267 15.1042 32.1298 15.6278L18.1031 28.7583C17.762 29.0806 17.2504 29.0806 16.9093 28.7583ZM9.78942 1.61111C7.61508 1.61111 5.61127 2.41667 4.07643 3.82639C1.47574 6.28333 0.96413 10.0694 2.84004 13.0097C3.18111 13.5333 3.60745 14.0569 4.07643 14.5L17.5062 27.0667L30.936 14.5C31.405 14.0569 31.8313 13.5736 32.1724 13.0097C34.0483 10.0292 33.5793 6.24306 30.936 3.82639C29.4012 2.41667 27.3547 1.61111 25.223 1.61111C22.1534 1.61111 19.5953 3.18194 18.231 5.35694C17.8899 5.88056 17.0799 5.88056 16.7388 5.35694C15.4171 3.18194 12.8591 1.61111 9.78942 1.61111Z" fill="black"/>
</svg>
