<svg width="31" height="29" viewBox="0 0 31 29" fill="none" xmlns="http://www.w3.org/2000/svg">
<path d="M29.2865 21.1132C30.4108 19.0672 30.9981 16.8003 31 14.4999C31 6.50518 24.0461 0 15.5 0C6.95386 0 0 6.50518 0 14.4999C0 22.4946 6.95386 28.9998 15.5 28.9998C17.9546 28.9998 20.3867 28.4475 22.5708 27.3982L29.2499 28.9602C29.4858 29.0158 29.7331 29.0131 29.9675 28.9523C30.202 28.8915 30.4155 28.7748 30.5871 28.6136C30.7593 28.4525 30.8839 28.2526 30.9488 28.0331C31.0138 27.8136 31.0168 27.5822 30.9577 27.3613L29.2865 21.1132ZM26.4219 21.2582L27.6534 25.8691L22.7244 24.7157C22.376 24.6352 22.0078 24.6814 21.6944 24.8449C19.8027 25.839 17.6697 26.3619 15.5 26.3634C8.50668 26.3634 2.81818 21.0407 2.81818 14.4999C2.81818 7.95912 8.50668 2.63634 15.5 2.63634C22.4933 2.63634 28.1818 7.95912 28.1818 14.4999C28.1799 16.529 27.6215 18.5237 26.56 20.2933C26.3833 20.5864 26.3339 20.9319 26.4219 21.2582Z" fill="#231F20"/>
</svg>
