<svg width="37" height="36" viewBox="0 0 37 36" fill="none" xmlns="http://www.w3.org/2000/svg">
<path fill-rule="evenodd" clip-rule="evenodd" d="M18.3759 18C22.8886 18 26.5429 14.4204 26.5429 10C26.5429 5.5796 22.8886 2 18.3759 2C13.8632 2 10.2088 5.5796 10.2088 10C10.2088 14.4204 13.8632 18 18.3759 18ZM28.5847 10C28.5847 15.525 24.0162 20 18.3759 20C12.7355 20 8.16705 15.525 8.16705 10C8.16705 4.475 12.7355 0 18.3759 0C24.0162 0 28.5847 4.475 28.5847 10ZM3.29079 28.2119C2.26675 29.0211 2.04176 29.6291 2.04176 30V34H34.71V30C34.71 29.6291 34.485 29.0211 33.4609 28.2119C32.4598 27.4207 30.9675 26.6669 29.1586 26.015C25.5424 24.7117 21.1866 24 18.3759 24C15.5652 24 11.2094 24.7117 7.59311 26.015C5.78421 26.6669 4.29199 27.4207 3.29079 28.2119ZM18.3759 22C12.2429 22 0 25.0347 0 30V36H36.7517V30C36.7517 25.0347 24.5088 22 18.3759 22Z" fill="#5A3A31"/>
</svg>
