<svg width="162" height="129" viewBox="0 0 162 129" fill="none" xmlns="http://www.w3.org/2000/svg">
<path d="M75.1389 19.8141C82.9303 14.4626 76.1306 9.83939 71.4867 9.14715C66.4326 8.39376 54.4829 9.53709 48.356 14.1472C38.5061 20.1436 21.9494 37.0258 45.5892 58.1428C51.928 62.8435 72.718 71.3746 96.9775 70.5791C79.1895 73.7431 54.6644 73.0585 48.356 73.0585C32.1985 73.0585 25.476 65.0009 23.7023 62.875L23.676 62.8435C17.5153 55.4609 8.33676 36.2122 20.9092 18.2772C36.6248 -4.1416 64.0184 -0.775641 75.1389 2.00248C82.3631 3.80722 86.7965 9.56901 88.6411 12.2207C91.2972 16.5598 94.8387 26.5036 87.7557 31.5659C80.6726 36.6282 73.9584 33.6752 71.4867 31.5659C69.4577 29.8784 67.3475 25.1657 75.1389 19.8141Z" fill="#5A3A31" stroke="#5A3A31" stroke-width="0.0193936"/>
<path d="M107.075 23.3363C106.798 23.2662 106.816 23.5919 105.14 26.7768C104.246 28.4759 103.452 30.2477 103.452 30.2477L102.17 32.8932L100.415 36.1982L98.5587 39.8346C94.0753 48.6702 100.874 35.3673 95.0216 46.721C87.1086 62.074 86.9731 62.3262 86.3121 63.7075C83.414 69.7625 83.4552 70.2682 81.3353 74.2199C80.487 75.7996 79.6595 77.6862 79.8283 77.6862C81.044 77.7376 81.4688 77.6862 81.4688 77.6862C82.0414 76.8747 83.6408 73.6001 83.7702 73.3823C84.9656 71.0491 86.0286 69.4559 86.1718 69.0696C87.967 65.3697 91.5513 58.2711 97.5791 46.721C97.8304 46.1929 105.413 30.9656 104.817 31.9209C104.892 31.8239 107.381 26.2169 107.786 25.5441C108.287 24.7117 107.333 25.7857 107.232 25.5441C107.285 24.8907 107.412 23.4228 107.075 23.3363Z" fill="#5A3A31"/>
<path d="M70.9411 23.2309C70.3258 23.9947 68.7542 26.001 68.5729 28.9384C68.442 31.0552 69.0953 32.6424 69.4867 33.5628C69.8903 34.5146 71.1482 37.3577 74.36 39.2315C74.8275 39.5044 78.7688 41.7227 83.3451 40.4248C86.9833 39.3925 88.9707 36.7209 90.655 34.4579C93.0688 31.2147 92.8997 29.6084 96.643 23.8799C101.196 18.348 107.189 19.8761 110.226 19.8324C106.329 18.3111 91.8733 18.347 91.8733 18.347C87.3591 18.347 78.0195 17.9978 73.7508 20.7338C72.1365 21.7691 71.0842 23.0549 70.9411 23.2309Z" fill="#5A3A31"/>
<path d="M120.487 17.6239C116.299 16.9884 113.087 18.592 112.088 19.1097C108.372 21.0325 106.452 22.7107 105.893 26.2864C105.666 27.7394 108.649 25.5836 110.477 25.7985C117.564 25.7985 115.37 37.1613 115.37 37.1613C115.37 37.1613 116.136 34.7242 109.521 56.0467C105.438 65.7989 100.712 92.0293 104.233 92.808C104.245 92.811 104.239 92.8095 106.178 92.808C106.178 92.808 107.6 92.808 109.132 92.808C113.454 92.8095 116.025 93.1616 120.02 92.8841C122.592 92.7051 123.877 92.6171 124.996 92.1979C129.634 90.466 131.446 86.1578 131.528 85.9519C131.933 84.945 132.925 82.0301 131.761 78.6394C130.479 74.9055 127.442 73.1035 126.161 72.4695C125.756 72.2696 122.359 70.6451 118.385 71.5551C116.57 71.9713 115.2 72.7858 114.848 73.0021C113.864 73.6062 113.109 74.273 112.592 74.7922C112.231 75.1561 111.698 75.814 110.648 77.1148C109.959 77.9666 109.615 78.3932 109.521 78.5245C109.266 78.8721 108.543 79.9029 107.616 82.2196C107.136 83.4204 106.853 84.3558 106.306 86.1802C105.47 88.9757 105.165 90.09 105.165 90.09C105.246 90.4143 105.439 86.7262 106.449 83.0564C107.204 80.3057 108.069 78.2157 108.394 77.4579C109.004 76.0258 109.068 76.093 110.261 73.4973C111.551 70.6884 111.645 70.2393 112.477 68.5462C113.346 66.7755 114.082 65.5582 114.848 64.2798C116.387 61.7155 118.978 57.37 120.291 55.1011C121.395 53.1946 123.568 49.3504 125.928 44.4366C127.633 40.8907 128.485 39.117 129.117 37.1613C130.791 31.9819 131.965 28.351 130.284 24.5918C128.543 20.6984 124.43 18.2221 120.487 17.6239Z" fill="#5A3A31"/>
<path d="M110.893 25.8114C109.525 25.7134 108.725 26.65 108.491 27.1837L108.225 26.2035L109.092 25.0927C110.27 25.4303 111.593 25.452 110.893 25.8114Z" fill="#5A3A31"/>
<path d="M79.1347 77.4969C78.7545 78.2329 79.0479 79.1279 79.7902 79.4958C80.5324 79.8637 81.4424 79.5653 81.8226 78.8293L79.1347 77.4969ZM107.019 23.5219L79.1347 77.4969L81.8226 78.8293L109.707 24.8543L107.019 23.5219Z" fill="#5A3A31"/>
<path d="M78.0386 79.6557L79.106 77.5647L82.0079 78.4469L81.4075 79.6557H78.0386Z" fill="#5A3A31"/>
<path d="M89.5459 46.943H55.8045C82.6472 47.6856 81.7501 58.4366 82.972 67.9344C94.109 45.6202 93.2652 46.9429 89.5459 46.943Z" fill="#5A3A31" stroke="#5A3A31" stroke-width="0.0193936"/>
<path d="M115.544 46.978L100.02 47.1792C112.268 47.5181 111.987 52.2235 112.544 56.5581C117.626 46.3743 117.241 46.978 115.544 46.978Z" fill="#5A3A31" stroke="#5A3A31" stroke-width="0.0193936"/>
<path d="M17.6579 111.645H19.7233V121.826H17.8325V120.11C17.0567 120.731 16.1452 121.206 15.098 121.536C14.0701 121.846 12.9647 122.001 11.7816 122.001C9.95864 122.001 8.26169 121.594 6.69081 120.779C5.13932 119.965 3.88843 118.782 2.93814 117.23C1.98785 115.679 1.5127 113.836 1.5127 111.703C1.5127 109.725 1.97815 107.95 2.90905 106.379C3.83994 104.789 5.11992 103.548 6.74899 102.656C8.37805 101.744 10.2205 101.289 12.2762 101.289C13.8277 101.289 15.2531 101.541 16.5525 102.045C17.8518 102.53 18.9476 103.257 19.8397 104.227L18.5015 105.594C16.8919 104.004 14.8458 103.209 12.3634 103.209C10.715 103.209 9.22168 103.577 7.88352 104.314C6.56475 105.032 5.52719 106.04 4.77084 107.339C4.01448 108.639 3.63631 110.093 3.63631 111.703C3.63631 113.429 4.01448 114.932 4.77084 116.212C5.54658 117.473 6.56475 118.442 7.82534 119.121C9.10532 119.78 10.4726 120.11 11.9271 120.11C12.9937 120.11 14.0216 119.936 15.0107 119.586C16.0191 119.218 16.9016 118.665 17.6579 117.928V111.645ZM34.1358 101.289C36.7734 101.289 38.8485 102.064 40.3612 103.616C41.8933 105.148 42.6593 107.368 42.6593 110.278V121.826H40.5357V115.834H27.7359V121.826H25.6414V110.278C25.6414 107.368 26.3978 105.148 27.9105 103.616C29.4426 102.064 31.5177 101.289 34.1358 101.289ZM40.5357 113.972V110.074C40.5357 107.805 39.9733 106.098 38.8485 104.954C37.7237 103.79 36.1528 103.209 34.1358 103.209C32.1189 103.209 30.548 103.79 29.4232 104.954C28.2984 106.098 27.7359 107.805 27.7359 110.074V113.972H40.5357ZM63.0163 121.826L58.3618 115.281C57.8382 115.339 57.2952 115.368 56.7328 115.368H51.2638V121.826H49.1111V101.463H56.7328C59.3315 101.463 61.3679 102.084 62.8418 103.325C64.3157 104.566 65.0526 106.273 65.0526 108.445C65.0526 110.035 64.6454 111.383 63.8308 112.488C63.0357 113.574 61.8915 114.36 60.3982 114.845L65.3726 121.826H63.0163ZM56.6746 113.536C58.6915 113.536 60.2333 113.09 61.3 112.197C62.3666 111.305 62.8999 110.054 62.8999 108.445C62.8999 106.796 62.3666 105.536 61.3 104.663C60.2333 103.771 58.6915 103.325 56.6746 103.325H51.2638V113.536H56.6746ZM70.1335 101.463H78.4242C80.5769 101.463 82.4775 101.899 84.126 102.772C85.7744 103.625 87.0544 104.828 87.9659 106.379C88.8774 107.911 89.3332 109.667 89.3332 111.645C89.3332 113.623 88.8774 115.388 87.9659 116.939C87.0544 118.471 85.7744 119.674 84.126 120.546C82.4775 121.4 80.5769 121.826 78.4242 121.826H70.1335V101.463ZM78.3079 119.965C80.0921 119.965 81.6533 119.616 82.9915 118.917C84.3296 118.2 85.3672 117.22 86.1041 115.979C86.8411 114.719 87.2096 113.274 87.2096 111.645C87.2096 110.016 86.8411 108.581 86.1041 107.339C85.3672 106.079 84.3296 105.099 82.9915 104.401C81.6533 103.684 80.0921 103.325 78.3079 103.325H72.2862V119.965H78.3079ZM108.712 119.499C107.879 120.294 106.763 120.915 105.367 121.361C103.99 121.788 102.458 122.001 100.771 122.001C98.9865 122.001 97.4641 121.759 96.2035 121.274C94.9623 120.789 94.0217 120.12 93.3818 119.266C92.7612 118.413 92.4509 117.434 92.4509 116.328C92.4509 115.107 92.8096 114.069 93.5272 113.216C94.2642 112.362 95.2242 111.771 96.4072 111.441C95.4375 111.073 94.6811 110.491 94.1381 109.696C93.5951 108.881 93.3236 107.931 93.3236 106.845C93.3236 105.817 93.6145 104.886 94.1963 104.052C94.7975 103.199 95.6896 102.53 96.8726 102.045C98.075 101.541 99.5198 101.289 101.207 101.289C102.448 101.289 103.651 101.434 104.814 101.725C105.997 101.996 107.006 102.394 107.84 102.918L107.171 104.634C105.386 103.625 103.428 103.121 101.294 103.121C99.4132 103.121 97.9684 103.48 96.9599 104.198C95.9708 104.915 95.4763 105.846 95.4763 106.99C95.4763 108.135 95.8738 109.017 96.669 109.638C97.4835 110.258 98.6277 110.568 100.102 110.568H105.163V112.43H100.014C98.3465 112.43 97.0278 112.75 96.0581 113.39C95.0884 114.011 94.6036 114.942 94.6036 116.183C94.6036 117.405 95.1272 118.374 96.1744 119.092C97.2411 119.809 98.8023 120.168 100.858 120.168C102.293 120.168 103.631 119.965 104.872 119.557C106.114 119.15 107.122 118.588 107.898 117.87L108.712 119.499ZM121.564 101.289C124.008 101.289 125.918 102.016 127.295 103.47C128.691 104.925 129.39 107 129.39 109.696V121.826H127.237V109.754C127.237 107.601 126.704 105.972 125.637 104.867C124.57 103.761 123.077 103.209 121.157 103.209C119.14 103.209 117.569 103.8 116.444 104.983C115.32 106.147 114.757 107.902 114.757 110.248V121.826H112.604V101.463H114.67V104.896C115.969 102.491 118.267 101.289 121.564 101.289ZM144.163 101.289C146.8 101.289 148.875 102.064 150.388 103.616C151.92 105.148 152.686 107.368 152.686 110.278V121.826H150.562V115.834H137.763V121.826H135.668V110.278C135.668 107.368 136.425 105.148 137.937 103.616C139.469 102.064 141.544 101.289 144.163 101.289ZM150.562 113.972V110.074C150.562 107.805 150 106.098 148.875 104.954C147.75 103.79 146.18 103.209 144.163 103.209C142.146 103.209 140.575 103.79 139.45 104.954C138.325 106.098 137.763 107.805 137.763 110.074V113.972H150.562Z" fill="#5A3A31"/>
</svg>
