<svg width="103" height="83" viewBox="0 0 103 83" fill="none" xmlns="http://www.w3.org/2000/svg">
<path d="M53.197 18.4496C59.9183 13.7367 54.0525 9.66521 50.0464 9.05557C45.6865 8.39209 35.3781 9.39898 30.0927 13.459C21.5957 18.7398 7.31303 33.6073 27.7059 52.2043C33.1741 56.3441 51.1087 63.8572 72.0361 63.1566C56.6913 65.943 35.5346 65.3401 30.0927 65.3401C16.1544 65.3401 10.3552 58.244 8.82515 56.3718L8.80249 56.3441C3.4879 49.8425 -4.42996 32.8908 6.41568 17.0961C19.9727 -2.64736 43.6039 0.31692 53.197 2.76351C59.429 4.35288 63.2534 9.4271 64.8447 11.7623C67.136 15.5836 70.1911 24.3408 64.0809 28.799C57.9707 33.2572 52.1787 30.6565 50.0464 28.799C48.2961 27.3129 46.4758 23.1626 53.197 18.4496Z" fill="white" stroke="white"/>
<path d="M49.5749 21.4588C49.0441 22.1314 47.6883 23.8983 47.532 26.4851C47.419 28.3494 47.9826 29.7471 48.3202 30.5577C48.6684 31.3959 49.7535 33.8998 52.5242 35.5499C52.9275 35.7903 56.3274 37.7438 60.2752 36.6008C63.4137 35.6917 65.1281 33.3389 66.5811 31.3459C68.6634 28.4898 68.5175 27.0752 71.7467 22.0302C75.6743 17.1585 79.1679 18.5072 81.7881 18.4686C78.426 17.1289 67.6321 17.1576 67.6321 17.1576C63.7379 17.1576 55.6811 16.8501 51.9987 19.2596C50.6061 20.1713 49.6983 21.3037 49.5749 21.4588Z" fill="white"/>
<path d="M92.3159 16.5208C88.7031 15.9611 85.9325 17.3734 85.0707 17.8293C81.8652 19.5227 81.5697 20.3529 79.9899 23.1176C79.7941 24.3972 82.1041 23.5306 83.6806 23.7199C89.7944 23.7199 87.902 33.7267 87.902 33.7267C87.902 33.7267 88.5623 31.5805 82.8557 50.3585C79.3335 58.9469 75.2571 82.0471 78.2945 82.7329C78.305 82.7355 78.2997 82.7342 79.9721 82.7329C79.9721 82.7329 81.1991 82.7329 82.5207 82.7329C86.2491 82.7342 88.4667 83.0442 91.9126 82.7999C94.1315 82.6422 95.2403 82.5647 96.2059 82.1955C100.206 80.6703 101.77 76.8762 101.84 76.6949C102.19 75.8082 103.045 73.2411 102.041 70.255C100.935 66.9668 98.3157 65.3798 97.2109 64.8214C96.8614 64.6454 93.9305 63.2147 90.503 64.0161C88.937 64.3827 87.7546 65.0999 87.4512 65.2904C86.6025 65.8225 85.9509 66.4097 85.5055 66.8669C85.1942 67.1875 84.7344 67.7668 83.8279 68.9124C83.2341 69.6625 82.9372 70.0383 82.8557 70.1539C82.6363 70.46 82.0123 71.3678 81.2122 73.408C80.7984 74.4655 80.5541 75.2893 80.0824 76.8959C79.3612 79.3579 79.0985 80.3392 79.0985 80.3392C79.1681 80.6248 79.3349 77.3768 80.2059 74.145C80.8575 71.7225 81.6037 69.8819 81.8836 69.2146C82.4104 67.9534 82.4655 68.0125 83.4942 65.7266C84.6069 63.2528 84.6884 62.8574 85.4057 61.3663C86.1558 59.8069 86.7904 58.7349 87.4512 57.6091C88.7793 55.3508 91.014 51.5239 92.1464 49.5257C93.0989 47.8467 94.9736 44.4612 97.0099 40.1338C98.4799 37.0111 99.2156 35.449 99.7608 33.7267C101.205 29.1655 102.218 25.9678 100.767 22.6572C99.2655 19.2284 95.7172 17.0476 92.3159 16.5208Z" fill="white"/>
<path d="M84.0402 23.7313C82.8605 23.645 82.1699 24.4698 81.9685 24.9398L81.7383 24.0766L82.4864 23.0983C83.5031 23.3956 84.6444 23.4148 84.0402 23.7313Z" fill="white"/>
<path d="M55.504 71.3018L79.9911 23.1174H83.1508L58.6637 71.3018H55.504Z" fill="white"/>
<path d="M65.6256 42.3409H36.5185C59.6744 42.9948 58.9006 52.4629 59.9546 60.8273C69.5619 41.1759 68.8341 42.3408 65.6256 42.3409Z" fill="white" stroke="white"/>
<path d="M88.0532 42.3717L74.6608 42.5489C85.2266 42.8474 84.9846 46.9912 85.4655 50.8085C89.8493 41.8401 89.5172 42.3717 88.0532 42.3717Z" fill="white" stroke="white"/>
</svg>
