<svg width="67" height="78" viewBox="0 0 67 78" fill="none" xmlns="http://www.w3.org/2000/svg">
<path d="M1.824 73.5001V62.3001H2.8L7.92 71.0361H7.408L12.48 62.3001H13.456V73.5001H12.32V64.0761H12.592L7.92 72.0761H7.36L2.656 64.0761H2.96V73.5001H1.824ZM20.2893 73.5801C19.4786 73.5801 18.7479 73.3988 18.0973 73.0361C17.4573 72.6628 16.9506 72.1561 16.5773 71.5161C16.2039 70.8655 16.0173 70.1241 16.0173 69.2921C16.0173 68.4495 16.2039 67.7081 16.5773 67.0681C16.9506 66.4281 17.4573 65.9268 18.0973 65.5641C18.7373 65.2015 19.4679 65.0201 20.2893 65.0201C21.1213 65.0201 21.8573 65.2015 22.4973 65.5641C23.1479 65.9268 23.6546 66.4281 24.0173 67.0681C24.3906 67.7081 24.5773 68.4495 24.5773 69.2921C24.5773 70.1241 24.3906 70.8655 24.0173 71.5161C23.6546 72.1561 23.1479 72.6628 22.4973 73.0361C21.8466 73.3988 21.1106 73.5801 20.2893 73.5801ZM20.2893 72.5721C20.8973 72.5721 21.4359 72.4388 21.9053 72.1721C22.3746 71.8948 22.7426 71.5108 23.0093 71.0201C23.2866 70.5188 23.4253 69.9428 23.4253 69.2921C23.4253 68.6308 23.2866 68.0548 23.0093 67.5641C22.7426 67.0735 22.3746 66.6948 21.9053 66.4281C21.4359 66.1508 20.9026 66.0121 20.3053 66.0121C19.7079 66.0121 19.1746 66.1508 18.7053 66.4281C18.2359 66.6948 17.8626 67.0735 17.5853 67.5641C17.3079 68.0548 17.1693 68.6308 17.1693 69.2921C17.1693 69.9428 17.3079 70.5188 17.5853 71.0201C17.8626 71.5108 18.2359 71.8948 18.7053 72.1721C19.1746 72.4388 19.7026 72.5721 20.2893 72.5721ZM30.2405 73.5801C29.4405 73.5801 28.7205 73.3988 28.0805 73.0361C27.4512 72.6735 26.9552 72.1721 26.5925 71.5321C26.2298 70.8815 26.0485 70.1348 26.0485 69.2921C26.0485 68.4388 26.2298 67.6921 26.5925 67.0521C26.9552 66.4121 27.4512 65.9161 28.0805 65.5641C28.7205 65.2015 29.4405 65.0201 30.2405 65.0201C30.9765 65.0201 31.6325 65.1855 32.2085 65.5161C32.7952 65.8468 33.2592 66.3321 33.6005 66.9721C33.9525 67.6015 34.1285 68.3748 34.1285 69.2921C34.1285 70.1988 33.9578 70.9721 33.6165 71.6121C33.2752 72.2521 32.8112 72.7428 32.2245 73.0841C31.6485 73.4148 30.9872 73.5801 30.2405 73.5801ZM30.3205 72.5721C30.9178 72.5721 31.4512 72.4388 31.9205 72.1721C32.4005 71.8948 32.7738 71.5108 33.0405 71.0201C33.3178 70.5188 33.4565 69.9428 33.4565 69.2921C33.4565 68.6308 33.3178 68.0548 33.0405 67.5641C32.7738 67.0735 32.4005 66.6948 31.9205 66.4281C31.4512 66.1508 30.9178 66.0121 30.3205 66.0121C29.7338 66.0121 29.2058 66.1508 28.7365 66.4281C28.2672 66.6948 27.8938 67.0735 27.6165 67.5641C27.3392 68.0548 27.2005 68.6308 27.2005 69.2921C27.2005 69.9428 27.3392 70.5188 27.6165 71.0201C27.8938 71.5108 28.2672 71.8948 28.7365 72.1721C29.2058 72.4388 29.7338 72.5721 30.3205 72.5721ZM33.4885 73.5001V70.9721L33.6005 69.2761L33.4405 67.5801V61.6281H34.5765V73.5001H33.4885ZM37.7403 73.5001V65.1001H38.8763V73.5001H37.7403ZM38.3163 63.2441C38.0816 63.2441 37.8843 63.1641 37.7243 63.0041C37.5643 62.8441 37.4843 62.6521 37.4843 62.4281C37.4843 62.2041 37.5643 62.0175 37.7243 61.8681C37.8843 61.7081 38.0816 61.6281 38.3163 61.6281C38.5509 61.6281 38.7483 61.7028 38.9083 61.8521C39.0683 62.0015 39.1483 62.1881 39.1483 62.4121C39.1483 62.6468 39.0683 62.8441 38.9083 63.0041C38.7589 63.1641 38.5616 63.2441 38.3163 63.2441ZM42.2291 73.5001V64.0441C42.2291 63.2975 42.4478 62.6948 42.8851 62.2361C43.3225 61.7775 43.9518 61.5481 44.7731 61.5481C45.0931 61.5481 45.4025 61.5908 45.7011 61.6761C45.9998 61.7615 46.2505 61.8948 46.4531 62.0761L46.0691 62.9241C45.9091 62.7855 45.7225 62.6841 45.5091 62.6201C45.2958 62.5455 45.0665 62.5081 44.8211 62.5081C44.3411 62.5081 43.9731 62.6415 43.7171 62.9081C43.4611 63.1748 43.3331 63.5695 43.3331 64.0921V65.3721L43.3651 65.9001V73.5001H42.2291ZM40.7251 66.0441V65.1001H45.9251V66.0441H40.7251ZM47.4611 73.5001V65.1001H48.5971V73.5001H47.4611ZM48.0371 63.2441C47.8025 63.2441 47.6051 63.1641 47.4451 63.0041C47.2851 62.8441 47.2051 62.6521 47.2051 62.4281C47.2051 62.2041 47.2851 62.0175 47.4451 61.8681C47.6051 61.7081 47.8025 61.6281 48.0371 61.6281C48.2718 61.6281 48.4691 61.7028 48.6291 61.8521C48.7891 62.0015 48.8691 62.1881 48.8691 62.4121C48.8691 62.6468 48.7891 62.8441 48.6291 63.0041C48.4798 63.1641 48.2825 63.2441 48.0371 63.2441ZM55.3551 73.5801C54.4805 73.5801 53.7125 73.3988 53.0511 73.0361C52.3898 72.6628 51.8725 72.1561 51.4991 71.5161C51.1258 70.8655 50.9391 70.1241 50.9391 69.2921C50.9391 68.4601 51.1151 67.7241 51.4671 67.0841C51.8298 66.4441 52.3205 65.9428 52.9391 65.5801C53.5685 65.2068 54.2725 65.0201 55.0511 65.0201C55.8405 65.0201 56.5391 65.2015 57.1471 65.5641C57.7658 65.9161 58.2511 66.4175 58.6031 67.0681C58.9551 67.7081 59.1311 68.4495 59.1311 69.2921C59.1311 69.3455 59.1258 69.4041 59.1151 69.4681C59.1151 69.5215 59.1151 69.5801 59.1151 69.6441H51.8031V68.7961H58.5071L58.0591 69.1321C58.0591 68.5241 57.9258 67.9855 57.6591 67.5161C57.4031 67.0361 57.0511 66.6628 56.6031 66.3961C56.1551 66.1295 55.6378 65.9961 55.0511 65.9961C54.4751 65.9961 53.9578 66.1295 53.4991 66.3961C53.0405 66.6628 52.6831 67.0361 52.4271 67.5161C52.1711 67.9961 52.0431 68.5455 52.0431 69.1641V69.3401C52.0431 69.9801 52.1818 70.5455 52.4591 71.0361C52.7471 71.5161 53.1418 71.8948 53.6431 72.1721C54.1551 72.4388 54.7365 72.5721 55.3871 72.5721C55.8991 72.5721 56.3738 72.4815 56.8111 72.3001C57.2591 72.1188 57.6431 71.8415 57.9631 71.4681L58.6031 72.2041C58.2298 72.6521 57.7605 72.9935 57.1951 73.2281C56.6405 73.4628 56.0271 73.5801 55.3551 73.5801ZM61.4434 73.5001V65.1001H62.5314V67.3881L62.4194 66.9881C62.654 66.3481 63.0487 65.8628 63.6034 65.5321C64.158 65.1908 64.846 65.0201 65.6674 65.0201V66.1241C65.6247 66.1241 65.582 66.1241 65.5394 66.1241C65.4967 66.1135 65.454 66.1081 65.4114 66.1081C64.526 66.1081 63.8327 66.3801 63.3314 66.9241C62.83 67.4575 62.5794 68.2201 62.5794 69.2121V73.5001H61.4434Z" fill="black"/>
<path d="M30.3377 18.7875L27.5287 28.1546C27.2901 28.9513 27.5081 29.8157 28.0964 30.4033C28.5264 30.8333 29.1044 31.066 29.6956 31.066C29.9128 31.066 30.1315 31.035 30.345 30.9702L39.7129 28.162C40.0715 28.0545 40.3984 27.8601 40.6627 27.5951L57.8376 10.4202C58.2617 9.9961 58.5003 9.42031 58.5003 8.82097C58.5003 8.22163 58.2617 7.64583 57.8376 7.22173L51.2779 0.662792C50.3944 -0.220768 48.963 -0.220768 48.0795 0.662792L30.9053 17.8377C30.6403 18.1027 30.4459 18.4282 30.3377 18.7875ZM34.5073 20.6327L49.6787 5.4605L53.0392 8.82097L37.8678 23.9931L33.0686 25.4318L34.5073 20.6327Z" fill="black"/>
<path d="M55.4841 21.8653C54.2346 21.8653 53.2222 22.8784 53.2222 24.1272V39.2065C53.2222 41.2858 51.531 42.9764 49.4524 42.9764H19.2937C17.2151 42.9764 15.5238 41.2858 15.5238 39.2065V9.0478C15.5238 6.96849 17.2151 5.27796 19.2937 5.27796H34.373C35.6225 5.27796 36.6349 4.26481 36.6349 3.01606C36.6349 1.7673 35.6225 0.75415 34.373 0.75415H19.2937C14.7205 0.75415 11 4.47539 11 9.0478V39.2065C11 43.7789 14.7205 47.5002 19.2937 47.5002H49.4524C54.0255 47.5002 57.746 43.7789 57.746 39.2065V24.1272C57.746 22.8784 56.7336 21.8653 55.4841 21.8653Z" fill="black"/>
</svg>
