<svg width="17" height="11" viewBox="0 0 17 11" fill="none" xmlns="http://www.w3.org/2000/svg">
<path d="M16.1411 4.96285C15.6516 4.1159 12.9595 -0.134087 8.386 0.00325508C4.15663 0.110077 1.70925 3.81832 1.04387 4.96285C0.976745 5.07884 0.941406 5.21042 0.941406 5.34435C0.941406 5.47829 0.976745 5.60987 1.04387 5.72586C1.5257 6.55754 4.10309 10.6854 8.60779 10.6854H8.79899C13.0284 10.5786 15.4834 6.87038 16.1411 5.72586C16.2082 5.60987 16.2436 5.47829 16.2436 5.34435C16.2436 5.21042 16.2082 5.07884 16.1411 4.96285ZM8.76075 9.15942C5.46444 9.23572 3.31534 6.4202 2.64231 5.34435C3.40712 4.1159 5.40326 1.60558 8.46248 1.52928C11.7435 1.44535 13.9002 4.2685 14.5809 5.34435C13.7932 6.5728 11.82 9.08312 8.76075 9.15942Z" fill="black"/>
<path d="M8.59088 2.67381C8.06146 2.67381 7.54392 2.83044 7.10372 3.12388C6.66352 3.41732 6.32043 3.83441 6.11782 4.32239C5.91522 4.81037 5.86221 5.34732 5.9655 5.86536C6.06878 6.3834 6.32373 6.85924 6.69809 7.23272C7.07245 7.60621 7.54941 7.86055 8.06866 7.9636C8.58791 8.06664 9.12613 8.01375 9.61525 7.81163C10.1044 7.6095 10.5224 7.26721 10.8166 6.82804C11.1107 6.38887 11.2677 5.87255 11.2677 5.34436C11.2677 4.63609 10.9857 3.95682 10.4837 3.456C9.98168 2.95517 9.30082 2.67381 8.59088 2.67381ZM8.59088 6.48888C8.36399 6.48888 8.14218 6.42176 7.95353 6.296C7.76487 6.17023 7.61783 5.99148 7.531 5.78235C7.44417 5.57322 7.42145 5.34309 7.46572 5.12108C7.50998 4.89906 7.61924 4.69513 7.77968 4.53506C7.94012 4.375 8.14454 4.26599 8.36707 4.22183C8.58961 4.17767 8.82027 4.20034 9.0299 4.28696C9.23952 4.37359 9.41869 4.52028 9.54475 4.7085C9.67081 4.89672 9.73809 5.118 9.73809 5.34436C9.73809 5.64791 9.61722 5.93902 9.40208 6.15366C9.18694 6.3683 8.89514 6.48888 8.59088 6.48888Z" fill="black"/>
</svg>
