<svg width="86" height="77" viewBox="0 0 86 77" fill="none" xmlns="http://www.w3.org/2000/svg">
<path d="M38.3333 37.6001C38.9522 37.6001 39.5457 37.3525 39.9832 36.9118C40.4208 36.4711 40.6667 35.8734 40.6667 35.2501V21.1501C40.6667 20.5269 40.4208 19.9291 39.9832 19.4884C39.5457 19.0477 38.9522 18.8001 38.3333 18.8001C37.7145 18.8001 37.121 19.0477 36.6834 19.4884C36.2458 19.9291 36 20.5269 36 21.1501V35.2501C36 35.8734 36.2458 36.4711 36.6834 36.9118C37.121 37.3525 37.7145 37.6001 38.3333 37.6001ZM61.6667 9.40012H52.3333V7.05012C52.3333 5.18035 51.5958 3.38715 50.2831 2.06502C48.9703 0.742888 47.1898 0.00012207 45.3333 0.00012207H40.6667C38.8102 0.00012207 37.0297 0.742888 35.7169 2.06502C34.4042 3.38715 33.6667 5.18035 33.6667 7.05012V9.40012H24.3333C23.7145 9.40012 23.121 9.64771 22.6834 10.0884C22.2458 10.5291 22 11.1269 22 11.7501C22 12.3734 22.2458 12.9711 22.6834 13.4118C23.121 13.8525 23.7145 14.1001 24.3333 14.1001H26.6667V39.9501C26.6667 41.8199 27.4042 43.6131 28.7169 44.9352C30.0297 46.2574 31.8102 47.0001 33.6667 47.0001H52.3333C54.1898 47.0001 55.9703 46.2574 57.2831 44.9352C58.5958 43.6131 59.3333 41.8199 59.3333 39.9501V14.1001H61.6667C62.2855 14.1001 62.879 13.8525 63.3166 13.4118C63.7542 12.9711 64 12.3734 64 11.7501C64 11.1269 63.7542 10.5291 63.3166 10.0884C62.879 9.64771 62.2855 9.40012 61.6667 9.40012ZM38.3333 7.05012C38.3333 6.42686 38.5792 5.82913 39.0168 5.38842C39.4543 4.94771 40.0478 4.70012 40.6667 4.70012H45.3333C45.9522 4.70012 46.5457 4.94771 46.9832 5.38842C47.4208 5.82913 47.6667 6.42686 47.6667 7.05012V9.40012H38.3333V7.05012ZM54.6667 39.9501C54.6667 40.5734 54.4208 41.1711 53.9832 41.6118C53.5457 42.0525 52.9522 42.3001 52.3333 42.3001H33.6667C33.0478 42.3001 32.4543 42.0525 32.0168 41.6118C31.5792 41.1711 31.3333 40.5734 31.3333 39.9501V14.1001H54.6667V39.9501ZM47.6667 37.6001C48.2855 37.6001 48.879 37.3525 49.3166 36.9118C49.7542 36.4711 50 35.8734 50 35.2501V21.1501C50 20.5269 49.7542 19.9291 49.3166 19.4884C48.879 19.0477 48.2855 18.8001 47.6667 18.8001C47.0478 18.8001 46.4543 19.0477 46.0168 19.4884C45.5792 19.9291 45.3333 20.5269 45.3333 21.1501V35.2501C45.3333 35.8734 45.5792 36.4711 46.0168 36.9118C46.4543 37.3525 47.0478 37.6001 47.6667 37.6001Z" fill="black"/>
<path d="M4.912 73.0961C4.08 73.0961 3.28 72.9628 2.512 72.6961C1.75467 72.4188 1.168 72.0668 0.752 71.6401L1.216 70.7281C1.61067 71.1121 2.13867 71.4375 2.8 71.7041C3.472 71.9601 4.176 72.0881 4.912 72.0881C5.616 72.0881 6.18667 72.0028 6.624 71.8321C7.072 71.6508 7.39733 71.4108 7.6 71.1121C7.81333 70.8135 7.92 70.4828 7.92 70.1201C7.92 69.6828 7.792 69.3308 7.536 69.0641C7.29067 68.7975 6.96533 68.5895 6.56 68.4401C6.15467 68.2801 5.70667 68.1415 5.216 68.0241C4.72533 67.9068 4.23467 67.7841 3.744 67.6561C3.25333 67.5175 2.8 67.3361 2.384 67.1121C1.97867 66.8881 1.648 66.5948 1.392 66.2321C1.14667 65.8588 1.024 65.3735 1.024 64.7761C1.024 64.2215 1.168 63.7148 1.456 63.2561C1.75467 62.7868 2.208 62.4135 2.816 62.1361C3.424 61.8481 4.20267 61.7041 5.152 61.7041C5.78133 61.7041 6.40533 61.7948 7.024 61.9761C7.64267 62.1468 8.176 62.3868 8.624 62.6961L8.224 63.6401C7.744 63.3201 7.232 63.0855 6.688 62.9361C6.15467 62.7868 5.63733 62.7121 5.136 62.7121C4.464 62.7121 3.90933 62.8028 3.472 62.9841C3.03467 63.1655 2.70933 63.4108 2.496 63.7201C2.29333 64.0188 2.192 64.3601 2.192 64.7441C2.192 65.1815 2.31467 65.5335 2.56 65.8001C2.816 66.0668 3.14667 66.2748 3.552 66.4241C3.968 66.5735 4.42133 66.7068 4.912 66.8241C5.40267 66.9415 5.888 67.0695 6.368 67.2081C6.85867 67.3468 7.30667 67.5281 7.712 67.7521C8.128 67.9655 8.45867 68.2535 8.704 68.6161C8.96 68.9788 9.088 69.4535 9.088 70.0401C9.088 70.5841 8.93867 71.0908 8.64 71.5601C8.34133 72.0188 7.88267 72.3921 7.264 72.6801C6.656 72.9575 5.872 73.0961 4.912 73.0961ZM14.8998 73.0801C14.1851 73.0801 13.5611 72.9468 13.0278 72.6801C12.4944 72.4135 12.0784 72.0135 11.7798 71.4801C11.4918 70.9468 11.3478 70.2801 11.3478 69.4801V64.6001H12.4838V69.3521C12.4838 70.2481 12.7024 70.9255 13.1398 71.3841C13.5878 71.8321 14.2118 72.0561 15.0118 72.0561C15.5984 72.0561 16.1051 71.9388 16.5318 71.7041C16.9691 71.4588 17.2998 71.1068 17.5238 70.6481C17.7584 70.1895 17.8758 69.6401 17.8758 69.0001V64.6001H19.0118V73.0001H17.9237V70.6961L18.0998 71.1121C17.8331 71.7308 17.4171 72.2161 16.8518 72.5681C16.2971 72.9095 15.6464 73.0801 14.8998 73.0801ZM26.5138 73.0801C25.7884 73.0801 25.1324 72.9148 24.5458 72.5841C23.9591 72.2428 23.4898 71.7575 23.1378 71.1281C22.7964 70.4881 22.6258 69.7095 22.6258 68.7921C22.6258 67.8748 22.7964 67.1015 23.1378 66.4721C23.4791 65.8321 23.9431 65.3468 24.5298 65.0161C25.1164 64.6855 25.7778 64.5201 26.5138 64.5201C27.3138 64.5201 28.0284 64.7015 28.6578 65.0641C29.2978 65.4161 29.7991 65.9175 30.1618 66.5681C30.5244 67.2081 30.7058 67.9495 30.7058 68.7921C30.7058 69.6455 30.5244 70.3921 30.1618 71.0321C29.7991 71.6721 29.2978 72.1735 28.6578 72.5361C28.0284 72.8988 27.3138 73.0801 26.5138 73.0801ZM22.1778 76.1041V64.6001H23.2658V67.1281L23.1538 68.8081L23.3138 70.5041V76.1041H22.1778ZM26.4338 72.0721C27.0311 72.0721 27.5644 71.9388 28.0338 71.6721C28.5031 71.3948 28.8764 71.0108 29.1538 70.5201C29.4311 70.0188 29.5698 69.4428 29.5698 68.7921C29.5698 68.1415 29.4311 67.5708 29.1538 67.0801C28.8764 66.5895 28.5031 66.2055 28.0338 65.9281C27.5644 65.6508 27.0311 65.5121 26.4338 65.5121C25.8364 65.5121 25.2978 65.6508 24.8177 65.9281C24.3484 66.2055 23.9751 66.5895 23.6978 67.0801C23.4311 67.5708 23.2978 68.1415 23.2978 68.7921C23.2978 69.4428 23.4311 70.0188 23.6978 70.5201C23.9751 71.0108 24.3484 71.3948 24.8177 71.6721C25.2978 71.9388 25.8364 72.0721 26.4338 72.0721ZM37.3575 73.0801C36.6322 73.0801 35.9762 72.9148 35.3895 72.5841C34.8028 72.2428 34.3335 71.7575 33.9815 71.1281C33.6402 70.4881 33.4695 69.7095 33.4695 68.7921C33.4695 67.8748 33.6402 67.1015 33.9815 66.4721C34.3228 65.8321 34.7868 65.3468 35.3735 65.0161C35.9602 64.6855 36.6215 64.5201 37.3575 64.5201C38.1575 64.5201 38.8722 64.7015 39.5015 65.0641C40.1415 65.4161 40.6428 65.9175 41.0055 66.5681C41.3682 67.2081 41.5495 67.9495 41.5495 68.7921C41.5495 69.6455 41.3682 70.3921 41.0055 71.0321C40.6428 71.6721 40.1415 72.1735 39.5015 72.5361C38.8722 72.8988 38.1575 73.0801 37.3575 73.0801ZM33.0215 76.1041V64.6001H34.1095V67.1281L33.9975 68.8081L34.1575 70.5041V76.1041H33.0215ZM37.2775 72.0721C37.8748 72.0721 38.4082 71.9388 38.8775 71.6721C39.3468 71.3948 39.7202 71.0108 39.9975 70.5201C40.2748 70.0188 40.4135 69.4428 40.4135 68.7921C40.4135 68.1415 40.2748 67.5708 39.9975 67.0801C39.7202 66.5895 39.3468 66.2055 38.8775 65.9281C38.4082 65.6508 37.8748 65.5121 37.2775 65.5121C36.6802 65.5121 36.1415 65.6508 35.6615 65.9281C35.1922 66.2055 34.8188 66.5895 34.5415 67.0801C34.2748 67.5708 34.1415 68.1415 34.1415 68.7921C34.1415 69.4428 34.2748 70.0188 34.5415 70.5201C34.8188 71.0108 35.1922 71.3948 35.6615 71.6721C36.1415 71.9388 36.6802 72.0721 37.2775 72.0721ZM43.8653 73.0001V64.6001H44.9533V66.8881L44.8413 66.4881C45.0759 65.8481 45.4706 65.3628 46.0253 65.0321C46.5799 64.6908 47.2679 64.5201 48.0893 64.5201V65.6241C48.0466 65.6241 48.0039 65.6241 47.9613 65.6241C47.9186 65.6135 47.8759 65.6081 47.8333 65.6081C46.9479 65.6081 46.2546 65.8801 45.7533 66.4241C45.2519 66.9575 45.0013 67.7201 45.0013 68.7121V73.0001H43.8653ZM50.1621 73.0001V64.6001H51.2981V73.0001H50.1621ZM50.7381 62.7441C50.5035 62.7441 50.3061 62.6641 50.1461 62.5041C49.9861 62.3441 49.9061 62.1521 49.9061 61.9281C49.9061 61.7041 49.9861 61.5175 50.1461 61.3681C50.3061 61.2081 50.5035 61.1281 50.7381 61.1281C50.9728 61.1281 51.1701 61.2028 51.3301 61.3521C51.4901 61.5015 51.5701 61.6881 51.5701 61.9121C51.5701 62.1468 51.4901 62.3441 51.3301 62.5041C51.1808 62.6641 50.9835 62.7441 50.7381 62.7441ZM64.955 64.5201C65.6377 64.5201 66.2297 64.6535 66.731 64.9201C67.243 65.1761 67.6377 65.5708 67.915 66.1041C68.203 66.6375 68.347 67.3095 68.347 68.1201V73.0001H67.211V68.2321C67.211 67.3468 66.9977 66.6801 66.571 66.2321C66.155 65.7735 65.563 65.5441 64.795 65.5441C64.219 65.5441 63.7177 65.6668 63.291 65.9121C62.875 66.1468 62.5497 66.4935 62.315 66.9521C62.091 67.4001 61.979 67.9441 61.979 68.5841V73.0001H60.843V68.2321C60.843 67.3468 60.6297 66.6801 60.203 66.2321C59.7763 65.7735 59.179 65.5441 58.411 65.5441C57.8457 65.5441 57.3497 65.6668 56.923 65.9121C56.4963 66.1468 56.1657 66.4935 55.931 66.9521C55.707 67.4001 55.595 67.9441 55.595 68.5841V73.0001H54.459V64.6001H55.547V66.8721L55.371 66.4721C55.627 65.8641 56.0377 65.3895 56.603 65.0481C57.179 64.6961 57.8563 64.5201 58.635 64.5201C59.4563 64.5201 60.155 64.7281 60.731 65.1441C61.307 65.5495 61.6803 66.1628 61.851 66.9841L61.403 66.8081C61.6483 66.1255 62.0803 65.5761 62.699 65.1601C63.3283 64.7335 64.0803 64.5201 64.955 64.5201ZM74.9958 73.0801C74.1211 73.0801 73.3531 72.8988 72.6918 72.5361C72.0304 72.1628 71.5131 71.6561 71.1398 71.0161C70.7664 70.3655 70.5798 69.6241 70.5798 68.7921C70.5798 67.9601 70.7558 67.2241 71.1078 66.5841C71.4704 65.9441 71.9611 65.4428 72.5798 65.0801C73.2091 64.7068 73.9131 64.5201 74.6918 64.5201C75.4811 64.5201 76.1798 64.7015 76.7878 65.0641C77.4064 65.4161 77.8918 65.9175 78.2438 66.5681C78.5958 67.2081 78.7718 67.9495 78.7718 68.7921C78.7718 68.8455 78.7664 68.9041 78.7558 68.9681C78.7558 69.0215 78.7558 69.0801 78.7558 69.1441H71.4438V68.2961H78.1478L77.6998 68.6321C77.6998 68.0241 77.5664 67.4855 77.2998 67.0161C77.0438 66.5361 76.6918 66.1628 76.2438 65.8961C75.7958 65.6295 75.2784 65.4961 74.6918 65.4961C74.1158 65.4961 73.5984 65.6295 73.1398 65.8961C72.6811 66.1628 72.3238 66.5361 72.0678 67.0161C71.8118 67.4961 71.6838 68.0455 71.6838 68.6641V68.8401C71.6838 69.4801 71.8224 70.0455 72.0998 70.5361C72.3878 71.0161 72.7824 71.3948 73.2838 71.6721C73.7958 71.9388 74.3771 72.0721 75.0278 72.0721C75.5398 72.0721 76.0144 71.9815 76.4518 71.8001C76.8998 71.6188 77.2838 71.3415 77.6038 70.9681L78.2438 71.7041C77.8704 72.1521 77.4011 72.4935 76.8358 72.7281C76.2811 72.9628 75.6678 73.0801 74.9958 73.0801ZM81.084 73.0001V64.6001H82.172V66.8881L82.06 66.4881C82.2947 65.8481 82.6893 65.3628 83.244 65.0321C83.7987 64.6908 84.4867 64.5201 85.308 64.5201V65.6241C85.2653 65.6241 85.2227 65.6241 85.18 65.6241C85.1373 65.6135 85.0947 65.6081 85.052 65.6081C84.1667 65.6081 83.4733 65.8801 82.972 66.4241C82.4707 66.9575 82.22 67.7201 82.22 68.7121V73.0001H81.084Z" fill="black"/>
</svg>
